# xmcd CD database file
#
# Track frame offsets:
#	150
#	18794
#	34143
#	51655
#	70195
#	88797
#	113467
#	137579
#	155826
#	174073
#	189130
#	206555
#	226704
#	243969
#	261457
#	278422
#	300062
#
# Disc length: 4238 seconds
#
# Revision: 0
# Processed by: cddbd v1.5.2PL0 Copyright (c) Steve Scherf et al.
# Submitted via: CDex 1.70beta2
#
DISCID=d0108c11
DTITLE=TM Studios - TMStudios Smooth Jazz 032
DYEAR=2008
DGENRE=Jazz
TTITLE0=David Sanborn feat. Derek Trucks   - Brother Ray [Radio Edit]
TTITLE1=Victoria White   - Keep On 
TTITLE2=Paul Hardcastle  - Marimba 
TTITLE3=Terrence Howard   - Sanctuary [Radio Edit]
TTITLE4=Larry Carlton   - All In Good Time [Radio Edit]
TTITLE5=Angella Christie  - I'm Still Here [Album Version]
TTITLE6=Walter Duda  - Rapless Rhapsody [Album Version]
TTITLE7=Dave Stewart Feat. Candy Dulfer   - Lily Was Here [Radio Edit]
TTITLE8=Sergio Mendes Feat. Natalie Cole - Somewhere In The Hills (O Morro Nao Tem Vez) [Album Version]
TTITLE9=L.A. Chillharmonic Feat. Richard Smith - Boogie On Reggae Woman [Radio Edit #1]
TTITLE10=Carly Simon   - So Many People To Love [Album Version]
TTITLE11=Native Vibe feat. Jeff Kashiwa   - Now's The Time 
TTITLE12=Dave Koz   - Life In The Fast Lane [Radio Edit]
TTITLE13=Jason Miles  - Strawberry Moon [Radio Edit]
TTITLE14=Tim Bowman  - Sweet Sundays 
TTITLE15=Harold Rayford   - You Are Good [Album Version]
TTITLE16=Stanley Jordan  - Steppin' Out [Radio Edit #1]
EXTD=YEAR: 2008
EXTT0=
EXTT1=
EXTT2=
EXTT3=
EXTT4=
EXTT5=
EXTT6=
EXTT7=
EXTT8=
EXTT9=
EXTT10=
EXTT11=
EXTT12=
EXTT13=
EXTT14=
EXTT15=
EXTT16=
PLAYORDER=
